<?xml version="1.0" encoding="UTF-8"?>
<svg width="24px" height="24px" viewBox="0 0 24 24" version="1.1" xmlns="http://www.w3.org/2000/svg" xmlns:xlink="http://www.w3.org/1999/xlink">
    <title>Icon/Health/weather-rainy</title>
    <g id="Icon/Health/weather-rainy" stroke="none" stroke-width="1" fill="none" fill-rule="evenodd">
        <g id="weather-rainy" transform="translate(0.000000, 1.000000)" fill="#0B6AA2" fill-rule="nonzero">
            <path d="M5.45454545,13.0909091 C6.05703791,13.0909091 6.54545455,13.5793257 6.54545455,14.1818182 C6.54545455,14.7843106 6.05703791,15.2727273 5.45454545,15.2727273 C4.00791006,15.2727273 2.62052508,14.6980536 1.59759938,13.6751279 C0.574673675,12.6522022 -2.42230478e-16,11.2648172 -2.42230478e-16,9.81818182 C-2.42230478e-16,6.80571955 2.44208318,4.36363636 5.45454545,4.36363636 C6.54545455,1.8 9.05454545,9.68921912e-16 12,9.68921912e-16 C15.7418182,9.68921912e-16 18.8072727,2.90181818 19.0909091,6.57818182 L19.6363636,6.54545455 C22.0463335,6.54545455 24,8.49912109 24,10.9090909 C24,13.3190607 22.0463335,15.2727273 19.6363636,15.2727273 L18.5454545,15.2727273 C17.9429621,15.2727273 17.4545455,14.7843106 17.4545455,14.1818182 C17.4545455,13.5793257 17.9429621,13.0909091 18.5454545,13.0909091 L19.6363636,13.0909091 C20.8413485,13.0909091 21.8181818,12.1140758 21.8181818,10.9090909 C21.8181818,9.704106 20.8413485,8.72727273 19.6363636,8.72727273 L17.4545455,8.72727273 L17.4545455,7.63636364 C17.4545455,4.62390136 15.0124623,2.18181818 12,2.18181818 C9.27272727,2.18181818 7.03636364,4.16727273 6.61090909,6.75272727 C6.2404402,6.61691899 5.84912034,6.54677675 5.45454545,6.54545455 C3.64706809,6.54545455 2.18181818,8.01070446 2.18181818,9.81818182 C2.18181818,11.6256592 3.64706809,13.0909091 5.45454545,13.0909091 M15.0872727,14.9127273 C16.7890909,16.6145455 16.7890909,19.0909091 15.0872727,20.8145455 C14.2363636,21.6654545 13.0909091,21.8181818 12,21.8181818 C10.9090909,21.8181818 9.76363636,21.6654545 8.91272727,20.8145455 C7.21090909,19.0909091 7.21090909,16.6145455 8.91272727,14.9127273 L12,9.81818182 L15.0872727,14.9127273 M13.5381818,16.0254545 L12,13.3636364 L10.4618182,16.0254545 C9.6,16.9090909 9.6,18.2181818 10.4618182,19.0909091 C10.9090909,19.56 11.4545455,19.6363636 12,19.6363636 C12.5454545,19.6363636 13.0909091,19.56 13.5381818,19.0909091 C14.4,18.2181818 14.4,16.9090909 13.5381818,16.0254545 Z" id="Shape"></path>
        </g>
    </g>
</svg>